<svg width="16" height="17" viewBox="0 0 16 17" fill="none" xmlns="http://www.w3.org/2000/svg">
<path d="M16 15.6632L11.5307 11.1938C12.6047 9.90448 13.1402 8.25068 13.026 6.57649C12.9117 4.90231 12.1564 3.33663 10.9171 2.20516C9.67784 1.0737 8.05008 0.463565 6.37243 0.501684C4.69478 0.539804 3.09641 1.22324 1.90983 2.40983C0.723243 3.59641 0.0398038 5.19478 0.00168439 6.87243C-0.036435 8.55008 0.5737 10.1778 1.70516 11.4171C2.83663 12.6564 4.40231 13.4117 6.07649 13.526C7.75068 13.6402 9.40448 13.1047 10.6938 12.0307L15.1632 16.5L16 15.6632ZM1.20478 7.03106C1.20478 5.97762 1.51716 4.94784 2.10242 4.07194C2.68768 3.19604 3.51953 2.51335 4.49278 2.11022C5.46603 1.70709 6.53697 1.60161 7.57016 1.80712C8.60336 2.01264 9.55241 2.51992 10.2973 3.26481C11.0422 4.00971 11.5495 4.95876 11.755 5.99195C11.9605 7.02515 11.855 8.09609 11.4519 9.06934C11.0488 10.0426 10.3661 10.8744 9.49018 11.4597C8.61428 12.045 7.5845 12.3573 6.53106 12.3573C5.11892 12.3558 3.76507 11.7941 2.76654 10.7956C1.76801 9.79705 1.20635 8.4432 1.20478 7.03106Z" fill="#8C8BB6"/>
</svg>
